<?xml version="1.0" encoding="UTF-8" standalone="no"?>
<!-- Created with Inkscape (http://www.inkscape.org/) -->

<svg
   width="1024"
   height="1024"
   viewBox="0 0 1024 1024"
   version="1.1"
   id="svg5"
   xml:space="preserve"
   inkscape:version="1.2 (dc2aedaf03, 2022-05-15)"
   sodipodi:docname="logo.svg"
   inkscape:export-filename="logo.png"
   inkscape:export-xdpi="96"
   inkscape:export-ydpi="96"
   xmlns:inkscape="http://www.inkscape.org/namespaces/inkscape"
   xmlns:sodipodi="http://sodipodi.sourceforge.net/DTD/sodipodi-0.dtd"
   xmlns="http://www.w3.org/2000/svg"
   xmlns:svg="http://www.w3.org/2000/svg"><sodipodi:namedview
     id="namedview7"
     pagecolor="#505050"
     bordercolor="#eeeeee"
     borderopacity="1"
     inkscape:showpageshadow="0"
     inkscape:pageopacity="0"
     inkscape:pagecheckerboard="0"
     inkscape:deskcolor="#505050"
     inkscape:document-units="px"
     showgrid="false"
     inkscape:zoom="0.5"
     inkscape:cx="436"
     inkscape:cy="335"
     inkscape:window-width="2560"
     inkscape:window-height="1351"
     inkscape:window-x="-9"
     inkscape:window-y="-9"
     inkscape:window-maximized="1"
     inkscape:current-layer="layer1" /><defs
     id="defs2"><inkscape:path-effect
       effect="fillet_chamfer"
       id="path-effect37180"
       is_visible="true"
       lpeversion="1"
       nodesatellites_param="F,0,0,1,0,256,0,1 @ F,0,0,1,0,256,0,1 @ F,0,0,1,0,256,0,1 @ F,0,0,1,0,256,0,1"
       unit="px"
       method="auto"
       mode="F"
       radius="256"
       chamfer_steps="1"
       flexible="false"
       use_knot_distance="true"
       apply_no_radius="true"
       apply_with_radius="true"
       only_selected="false"
       hide_knots="false" /><inkscape:path-effect
       effect="fillet_chamfer"
       id="path-effect16463"
       is_visible="true"
       lpeversion="1"
       nodesatellites_param="F,0,0,1,0,256,0,1 @ F,0,0,1,0,256,0,1 @ F,0,0,1,0,256,0,1 @ F,0,0,1,0,256,0,1"
       unit="px"
       method="auto"
       mode="F"
       radius="256"
       chamfer_steps="1"
       flexible="false"
       use_knot_distance="true"
       apply_no_radius="true"
       apply_with_radius="true"
       only_selected="false"
       hide_knots="false" /><inkscape:path-effect
       effect="fillet_chamfer"
       id="path-effect3393"
       is_visible="true"
       lpeversion="1"
       nodesatellites_param="F,0,0,1,0,256,0,1 @ F,0,0,1,0,256,0,1 @ F,0,0,1,0,256,0,1 @ F,0,0,1,0,256,0,1"
       unit="px"
       method="auto"
       mode="F"
       radius="256"
       chamfer_steps="1"
       flexible="false"
       use_knot_distance="true"
       apply_no_radius="true"
       apply_with_radius="true"
       only_selected="false"
       hide_knots="false" /></defs><g
     inkscape:label="Base"
     inkscape:groupmode="layer"
     id="layer1"><rect
       style="fill:#e0554a;fill-opacity:1;stroke-width:0.998;paint-order:markers fill stroke;stroke-dasharray:none"
       id="rect3391"
       width="1023.9974"
       height="1023.9966"
       x="0"
       y="0"
       d="M 256,0 H 767.99738 A 256,256 45 0 1 1023.9974,256 V 767.99658 A 256,256 135 0 1 767.99738,1023.9966 H 256 A 256,256 45 0 1 0,767.99658 V 256 A 256,256 135 0 1 256,0 Z"
       inkscape:label="Background"
       inkscape:path-effect="#path-effect3393" /><path
       style="fill:#ef7064;fill-opacity:1;stroke-width:0.998;stroke-dasharray:none;paint-order:markers fill stroke"
       id="rect16459"
       width="819.19788"
       height="819.19727"
       x="102.40111"
       y="38.399658"
       inkscape:path-effect="#path-effect16463"
       d="m 358.40111,38.399658 h 307.19787 a 256,256 45 0 1 256,256.000002 v 307.19726 a 256,256 135 0 1 -256,256 H 358.40111 a 256,256 45 0 1 -256,-256 V 294.39966 a 256,256 135 0 1 256,-256.000002 z"
       inkscape:label="Background"
       sodipodi:type="rect" /><g
       id="g32645"
       inkscape:label="frog"
       transform="translate(6,-68)"><path
         style="fill:#f9d368;fill-opacity:1;stroke-width:0.998;stroke-dasharray:none;paint-order:markers fill stroke"
         d="m 740.5,228 c -64.05383,47.83125 -131.50769,59.86126 -220,89 -38.59827,12.70964 -83.76972,15.22788 -118.82843,37.5 -35.28105,22.41337 -85.10187,50.41493 -84.97487,92.2132 0.0832,27.39341 31.96466,47.05614 56.05635,60.09441 C 403.91987,523.6749 442.2069,528.20518 477.5,525 c 75.3582,-6.84373 146.44212,-42.50357 213,-78.5 58.05436,-31.39748 104.85924,-80.2523 159,-118 28.83933,-20.10718 86.70156,-23.75745 88.26517,-57.73483 C 938.33702,258.33864 938.37512,245.85035 922.5,236.5 899.63523,223.03278 890.35059,233.21548 845.0879,217.93013 829.32635,212.60741 823.46283,199.39499 792.00985,198.92188 772.29519,198.62534 755.98567,216.43631 740.5,228 Z"
         id="path30835"
         sodipodi:nodetypes="ssaaaaaasssss"
         inkscape:label="frog_body" /><ellipse
         style="fill:#393a59;fill-opacity:1;stroke-width:1.02208;stroke-dasharray:none;paint-order:markers fill stroke"
         id="path31616"
         cx="768.78625"
         cy="272.79764"
         rx="35.88567"
         ry="36.062447"
         inkscape:label="eye" /><ellipse
         style="fill:#7f7d89;fill-opacity:1;stroke-width:0.998;stroke-dasharray:none;paint-order:markers fill stroke"
         id="path31672"
         cx="779.90063"
         cy="263.39816"
         rx="11.755651"
         ry="11.667262"
         inkscape:label="eye_highlight" /><path
         id="path32623"
         style="fill:#393a59;fill-opacity:1;stroke-width:0.998;stroke-dasharray:none;paint-order:markers fill stroke"
         d="m 330.75,445.5 c -16.57528,9.27238 -35.27474,24.71303 -50.125,40.125 -11.40843,11.83996 -18.22007,27.54592 -29.375,39.625 -9.11947,9.87499 -16.79293,33.06086 -19.46875,33.90625 -3.95572,1.24975 -22.7858,6.58676 -33.03125,14.59375 -21.74988,16.9979 -37.46143,35.38881 -52.60095,55 -18.90258,24.48573 -34.30226,68.63908 -43.69455,73.08839 -10.464932,4.95744 -23.924876,7.77735 -27.594665,18.15901 -3.384169,9.57365 1.033783,22.02502 9.270146,29.01777 5.481305,4.65367 16.540449,2.44213 20.870019,-4.14017 6.82752,-10.37997 28.61769,-52.35956 22.0625,-36.15625 -6.50213,16.07216 -8.36383,29.18944 -11.41605,44.04642 -1.59346,7.75628 -0.58211,16.15684 -3.58839,23.48223 -2.53368,6.17379 -10.05382,9.75539 -11.75,16.20971 -2.305915,8.77448 -2.522723,19.90391 3.07582,27.04289 4.01483,5.1195 11.83755,7.4438 18.30806,6.76517 5.5812,-0.58536 9.34127,-10.88486 14.23744,-8.98484 2.79491,1.0846 9.72625,5.56209 18.32062,-4.78033 9.37507,-11.28191 -0.75418,-29.29626 0.0455,-43.91161 0.79274,-14.48861 -1.21551,-30.02818 4.7045,-43.27589 15.7149,-35.16658 53.1715,-63.41976 77.25,-85.9375 5.93124,-5.54678 16.74178,-7.11866 20.5625,-10.25 10.2328,-8.38646 19.14599,-35.01923 16.1875,-23.625 -2.18129,8.40097 -4.03006,16.73883 -4.875,25.375 -0.60453,6.17897 0.92339,13.52285 -1.125,19.8125 -1.66603,5.11559 -7.45246,8.34127 -8.75,13.5625 -1.87602,7.54901 -2.60227,16.97895 2,23.25 3.01235,4.10464 9.03495,5.69545 14.125,5.8125 6.11598,0.14064 8.9953,-6.99478 13.1875,-8.125 1.09715,-0.29579 4.43806,3.14195 10.4375,-0.4375 3.18841,-1.9023 6.16108,-4.91843 7.28125,-8.46875 2.00004,-6.33902 -0.15771,-13.44816 -1.96875,-19.84375 -2.0826,-7.35458 -4.23698,-16.85361 -2.86926,-26.26072 1.52259,-10.47226 2.04059,-28.32222 9.41422,-31.05936 8.19774,-3.04307 49.52355,-0.3169 75.64254,-2.61742 14.56811,-1.28313 24.2718,-16.65131 30.5,-22 1.3861,-1.19036 13.52398,7.96399 20.5625,8.625 24.65188,2.31512 59.05902,-32.69872 52.4375,-57.875 -4.57807,-17.40669 -34.85506,-9.57319 -51.25,-17 -37.66338,-17.06129 -77.92931,-79.01245 -107,-62.75 z m 208.4375,131.5625 c -7.17891,6.8252 -7.20387,21.07313 -8.625,28.4375 -2.32261,12.03591 -14.38579,15.10327 -16.375,23.8125 -1.84403,8.07362 1.74595,18.14416 8.0625,23.5 4.7048,3.98923 13.59203,7.11163 18.25,3.0625 15.43931,-13.42125 4.71626,-14.97273 5.30308,-20.27275 2.11613,-19.1124 10.52307,-74.51402 10.98115,-55.29029 0.3133,13.14763 5.94147,32.06164 10.09077,47.81304 3.54723,13.46582 9.54766,25.94531 13.32062,37.71967 2.62289,8.18529 -7.21798,17.82647 -3.14016,25.27145 3.97481,7.25692 14.68113,13.65088 22.40533,10.68458 7.67546,-2.94759 12.72334,-15.25471 9.43458,-22.79029 -6.53586,-14.97572 -12.95034,-38.69598 -21.11504,-63.04702 -3.32598,-9.91966 -3.11599,-9.23511 -4.94042,-19.62195 -1.80025,-10.24918 5.07261,13.39038 8.4974,19.65165 3.70738,6.7779 10.27409,11.9737 12.95083,19.22074 2.07146,5.6083 -0.90971,12.62502 2.05285,17.81802 2.28125,3.99875 6.40268,8.37246 11.00628,8.34315 4.93096,-0.0314 9.97042,-4.45842 11.67418,-9.08579 3.17256,-8.61663 -0.5113,-19.82875 -5.57691,-26.97595 -7.74518,-10.92789 -16.65414,-21.90512 -22.98743,-35.42309 -4.07089,-8.68903 -8.11632,-20.41839 -17.33211,-23.76517 -14.18629,-5.15186 -32.99922,0.53815 -43.9375,10.9375 z m -16.63559,13.72522 c 41.79023,0.99629 77.76826,-14.52594 106.48633,-39.12921 42.6547,-36.54303 123.55423,-85.37163 159.9183,-140.44774 18.39639,-27.86271 56.41194,-37.90895 82.39571,-59.71131 27.81204,-23.33641 63.74907,-46.62163 66.43923,-78.44228 2.01756,-23.86477 -3.33124,22.19338 -96.57705,7.14644 -18.15588,-2.92979 -24.1066,30.53745 -39.95395,41.29342 -36.77983,24.96333 -59.90398,0.46417 -82.58326,17.0717 -19.87141,14.55139 -1.29624,42.49215 -36.10445,64.46714 -19.47568,12.29531 -41.8547,19.36943 -63.50078,27.2386 -37.87877,13.77036 -84.02966,10.00999 -115.78874,34.825 -23.96712,18.72674 -33.0667,51.20819 -46.63299,78.43078 -24.57314,49.30931 -34.95042,107.07923 -62.56615,152.97942 -8.8193,14.65858 -31.54721,12.62798 -35.58097,26.94894 -3.37167,11.97034 1.20665,35.61377 13.6118,34.73663 24.91349,-1.76159 15.84723,-17.52561 26.16295,-28.63783 41.99299,-45.23537 43.67478,-72.79967 37.12311,-51.97235 -8.60421,27.35215 -15.09629,73.67535 -17.32412,109.248 -0.65265,10.42122 -15.63861,13.98194 -16.44023,23.5113 -0.83076,9.87583 3.10951,24.48082 12.72792,26.87006 11.27742,2.80134 27.01334,-7.83467 27.93072,-20.85966 1.79007,-25.41554 13.89761,-135.63053 17.14734,-97.58073 2.2393,26.21905 -2.86128,8.97984 10.07627,48.96714 3.00141,9.27675 -6.73299,22.31848 -1.76777,31.64303 4.30063,8.07646 16.05587,8.53932 22.27387,4.24264 9.84287,-6.80149 10.24554,-22.83161 6.18718,-35.35534 -11.3189,-34.92908 -28.57759,-75.38067 -22.09709,-113.31385 6.39512,-37.43345 18.67226,-64.87954 48.43682,-64.16994 z"
         inkscape:label="frog_legs" /></g><path
       id="path36805"
       style="opacity:1;fill:#8e5e3d;fill-opacity:1;stroke-width:1.1976;stroke-dasharray:none;paint-order:markers fill stroke"
       inkscape:label="branch"
       d="M 837.02539 668.88672 C 833.10298 668.72771 827.67892 669.26148 820.46289 669.39258 C 808.50995 669.60975 807.54216 684.71312 801.42773 693.01562 C 791.28582 706.78684 767.07967 738.38975 754.85156 749.74414 C 719.1696 782.87657 665.14092 784.70508 618.50781 800.14453 C 528.73004 829.86845 460.48768 833.8369 365.76758 863.25391 C 310.98128 880.26876 163.91967 905.19418 114.66211 932.51367 C 103.67972 938.60478 90.123871 944.10803 75.369141 949.33594 A 256 256 0 0 0 240.93164 1022.5117 C 246.55674 1019.6995 252.25874 1016.773 258.18555 1013.5156 C 288.66263 996.76532 385.56027 962.91061 433.49805 951.81836 C 504.74558 935.3325 553.46454 912.4164 613.375 892.49609 C 665.48061 875.17089 725.58539 848.09342 769.56445 840.13867 C 846.5382 826.21602 905.4271 780.75919 979.55469 752.70898 C 985.17188 750.58341 988.44555 745.33054 985.50195 740.90039 C 980.01866 732.64816 970.50489 717.30261 959.7207 714.46094 C 950.33531 711.98784 835.18759 743.63913 839.5918 718.5332 C 847.04099 676.0696 848.79261 669.36373 837.02539 668.88672 z " /></g></svg>
